<svg xmlns="http://www.w3.org/2000/svg">
    <symbol id="menuAngel" viewBox="0 0 3.19 6.88">
        <g>
            <path fill="#382E5E" d="M3.04,6.73 L0.95,4.93 L0.95,1.42 L1.89,0.02 L3.19,0 L3.11,6.64 Z"/>
            <path fill="#7CA0C2" d="M2.99 6.78l-2.12 -1.81 0 -3.57c0.31,-0.46 0.62,-0.92 0.93,-1.38l0.18 0 -0.96 1.42 0 3.46 1.95 1.67 0.14 0.07 0 0.24 -0.12 -0.1z"/>
            <path fill="#011837" d="M1.74,0.02 L0.75,1.57 L0.05,1.57 L0.05,0.02 Z"/>
            <path fill="#1DA8C9" d="M1.82,0.02 L0.79,1.64 L0,1.64 L0,0.02 L0.12,0.02 L0.12,1.49 L0.71,1.49 L1.65,0.02 Z"/>
        </g>
    </symbol>
</svg>