<svg xmlns="http://www.w3.org/2000/svg">
    <symbol id="menuAngel" viewBox="0 0 3.19 6.88">
        <polygon fill="#1DA8C9" points="0,0 0.17,0 0.16,1.5 0.62,1.5 1.68,0 1.89,0 0.69,1.64 0,1.65 "/>
        <polygon fill="#011837" points="0.17,0 1.68,0 0.62,1.5 0.16,1.5 "/>
        <polygon fill="#7CA0C2" points="0.78,1.52 1,1.22 1,4.47 2.78,6.29 2.77,6.54 0.72,4.66 "/>
        <polygon fill="#382E5E" points="1,1.22 1.89,0 2.81,0 2.78,6.29 1,4.47 "/>
    </symbol>
    <symbol id="arrow" viewBox="0 0 320 512">
        <path d="M182.6 137.4c-12.5-12.5-32.8-12.5-45.3 0l-128 128c-9.2 9.2-11.9 22.9-6.9 34.9s16.6 19.8 29.6 19.8l256 0c12.9 0 24.6-7.8 29.6-19.8s2.2-25.7-6.9-34.9l-128-128z"/>
    </symbol>
</svg>
